<svg width="24" height="25" viewBox="0 0 24 25" fill="none" xmlns="http://www.w3.org/2000/svg">
<g clip-path="url(#clip0_328_129)">
<path d="M12 3.67773C7.03125 3.67773 3 7.70898 3 12.6777C3 17.6465 7.03125 21.6777 12 21.6777C12.8297 21.6777 13.5 22.348 13.5 23.1777C13.5 24.0074 12.8297 24.6777 12 24.6777C5.37188 24.6777 0 19.3059 0 12.6777C0 6.04961 5.37188 0.677734 12 0.677734C18.6281 0.677734 24 6.04961 24 12.6777V14.1777C24 16.6621 21.9844 18.6777 19.5 18.6777C18.1266 18.6777 16.8937 18.059 16.0687 17.0887C15 18.073 13.5703 18.6777 12 18.6777C8.68594 18.6777 6 15.9918 6 12.6777C6 9.36367 8.68594 6.67773 12 6.67773C13.3078 6.67773 14.5172 7.09492 15.5016 7.80742C15.7688 7.57305 16.1156 7.42773 16.5 7.42773C17.3297 7.42773 18 8.09805 18 8.92773V12.6777V14.1777C18 15.0074 18.6703 15.6777 19.5 15.6777C20.3297 15.6777 21 15.0074 21 14.1777V12.6777C21 7.70898 16.9688 3.67773 12 3.67773ZM15 12.6777C15 11.8821 14.6839 11.119 14.1213 10.5564C13.5587 9.9938 12.7956 9.67773 12 9.67773C11.2044 9.67773 10.4413 9.9938 9.87868 10.5564C9.31607 11.119 9 11.8821 9 12.6777C9 13.4734 9.31607 14.2364 9.87868 14.7991C10.4413 15.3617 11.2044 15.6777 12 15.6777C12.7956 15.6777 13.5587 15.3617 14.1213 14.7991C14.6839 14.2364 15 13.4734 15 12.6777Z" fill="white"/>
</g>
<defs>
<clipPath id="clip0_328_129">
<rect width="24" height="24" fill="white" transform="translate(0 0.677734)"/>
</clipPath>
</defs>
</svg>
