<svg width="24" height="25" viewBox="0 0 24 25" fill="none" xmlns="http://www.w3.org/2000/svg">
<g clip-path="url(#clip0_307_621)">
<path d="M23.625 12.6777C23.625 6.25586 18.4219 1.05273 12 1.05273C5.57812 1.05273 0.375 6.25586 0.375 12.6777C0.375 18.4799 4.62609 23.2893 10.1836 24.1621V16.0382H7.23047V12.6777H10.1836V10.1165C10.1836 7.2032 11.918 5.59398 14.5744 5.59398C15.8466 5.59398 17.1769 5.82086 17.1769 5.82086V8.68023H15.7106C14.2669 8.68023 13.8164 9.57648 13.8164 10.4957V12.6777H17.0405L16.5248 16.0382H13.8164V24.1621C19.3739 23.2893 23.625 18.4799 23.625 12.6777Z" fill="white"/>
</g>
<defs>
<clipPath id="clip0_307_621">
<rect width="24" height="24" fill="white" transform="translate(0 0.677734)"/>
</clipPath>
</defs>
</svg>
