<svg width="21" height="25" viewBox="0 0 21 25" fill="none" xmlns="http://www.w3.org/2000/svg">
<g clip-path="url(#clip0_307_624)">
<path d="M10.5048 7.28701C7.52354 7.28701 5.11885 9.6917 5.11885 12.6729C5.11885 15.6542 7.52354 18.0589 10.5048 18.0589C13.486 18.0589 15.8907 15.6542 15.8907 12.6729C15.8907 9.6917 13.486 7.28701 10.5048 7.28701ZM10.5048 16.1745C8.57822 16.1745 7.00322 14.6042 7.00322 12.6729C7.00322 10.7417 8.57353 9.17139 10.5048 9.17139C12.436 9.17139 14.0063 10.7417 14.0063 12.6729C14.0063 14.6042 12.4313 16.1745 10.5048 16.1745ZM17.3673 7.0667C17.3673 7.76514 16.8048 8.32295 16.111 8.32295C15.4126 8.32295 14.8548 7.76045 14.8548 7.0667C14.8548 6.37295 15.4173 5.81045 16.111 5.81045C16.8048 5.81045 17.3673 6.37295 17.3673 7.0667ZM20.9345 8.3417C20.8548 6.65889 20.4704 5.16826 19.2376 3.94014C18.0095 2.71201 16.5188 2.32764 14.836 2.24326C13.1017 2.14482 7.90322 2.14482 6.16885 2.24326C4.49072 2.32295 3.0001 2.70732 1.76729 3.93545C0.534473 5.16357 0.154785 6.6542 0.0704102 8.33701C-0.0280273 10.0714 -0.0280273 15.2698 0.0704102 17.0042C0.150098 18.687 0.534473 20.1776 1.76729 21.4058C3.0001 22.6339 4.48604 23.0183 6.16885 23.1026C7.90322 23.2011 13.1017 23.2011 14.836 23.1026C16.5188 23.0229 18.0095 22.6386 19.2376 21.4058C20.4657 20.1776 20.8501 18.687 20.9345 17.0042C21.0329 15.2698 21.0329 10.0761 20.9345 8.3417ZM18.6938 18.8651C18.3282 19.7839 17.6204 20.4917 16.697 20.862C15.3142 21.4104 12.0329 21.2839 10.5048 21.2839C8.97666 21.2839 5.69072 21.4058 4.3126 20.862C3.39385 20.4964 2.68604 19.7886 2.31572 18.8651C1.76729 17.4823 1.89385 14.2011 1.89385 12.6729C1.89385 11.1448 1.77197 7.85889 2.31572 6.48076C2.68135 5.56201 3.38916 4.8542 4.3126 4.48389C5.69541 3.93545 8.97666 4.06201 10.5048 4.06201C12.0329 4.06201 15.3188 3.94014 16.697 4.48389C17.6157 4.84951 18.3235 5.55732 18.6938 6.48076C19.2423 7.86357 19.1157 11.1448 19.1157 12.6729C19.1157 14.2011 19.2423 17.487 18.6938 18.8651Z" fill="white"/>
</g>
<defs>
<clipPath id="clip0_307_624">
<rect width="21" height="24" fill="white" transform="translate(0 0.677734)"/>
</clipPath>
</defs>
</svg>
