<svg width="24" height="25" viewBox="0 0 24 25" fill="none" xmlns="http://www.w3.org/2000/svg">
<g clip-path="url(#clip0_328_139)">
<path d="M7.72969 1.83094C7.36875 0.959065 6.41719 0.495002 5.50781 0.74344L1.38281 1.86844C0.567188 2.09344 0 2.83406 0 3.67781C0 15.2747 9.40313 24.6778 21 24.6778C21.8438 24.6778 22.5844 24.1106 22.8094 23.295L23.9344 19.17C24.1828 18.2606 23.7188 17.3091 22.8469 16.9481L18.3469 15.0731C17.5828 14.7544 16.6969 14.9747 16.1766 15.6169L14.2828 17.9278C10.9828 16.3669 8.31094 13.695 6.75 10.395L9.06094 8.50594C9.70312 7.98094 9.92344 7.09969 9.60469 6.33563L7.72969 1.83563V1.83094Z" fill="white"/>
</g>
<defs>
<clipPath id="clip0_328_139">
<rect width="24" height="24" fill="white" transform="translate(0 0.677734)"/>
</clipPath>
</defs>
</svg>
