<svg width="21" height="25" viewBox="0 0 21 25" fill="none" xmlns="http://www.w3.org/2000/svg">
<g clip-path="url(#clip0_328_144)">
<path d="M6 0.677734C6.82969 0.677734 7.5 1.34805 7.5 2.17773V3.67773H13.5V2.17773C13.5 1.34805 14.1703 0.677734 15 0.677734C15.8297 0.677734 16.5 1.34805 16.5 2.17773V3.67773H18.75C19.9922 3.67773 21 4.68555 21 5.92773V8.17773H0V5.92773C0 4.68555 1.00781 3.67773 2.25 3.67773H4.5V2.17773C4.5 1.34805 5.17031 0.677734 6 0.677734ZM0 9.67773H21V22.4277C21 23.6699 19.9922 24.6777 18.75 24.6777H2.25C1.00781 24.6777 0 23.6699 0 22.4277V9.67773ZM3 13.4277V14.9277C3 15.3402 3.3375 15.6777 3.75 15.6777H5.25C5.6625 15.6777 6 15.3402 6 14.9277V13.4277C6 13.0152 5.6625 12.6777 5.25 12.6777H3.75C3.3375 12.6777 3 13.0152 3 13.4277ZM9 13.4277V14.9277C9 15.3402 9.3375 15.6777 9.75 15.6777H11.25C11.6625 15.6777 12 15.3402 12 14.9277V13.4277C12 13.0152 11.6625 12.6777 11.25 12.6777H9.75C9.3375 12.6777 9 13.0152 9 13.4277ZM15.75 12.6777C15.3375 12.6777 15 13.0152 15 13.4277V14.9277C15 15.3402 15.3375 15.6777 15.75 15.6777H17.25C17.6625 15.6777 18 15.3402 18 14.9277V13.4277C18 13.0152 17.6625 12.6777 17.25 12.6777H15.75ZM3 19.4277V20.9277C3 21.3402 3.3375 21.6777 3.75 21.6777H5.25C5.6625 21.6777 6 21.3402 6 20.9277V19.4277C6 19.0152 5.6625 18.6777 5.25 18.6777H3.75C3.3375 18.6777 3 19.0152 3 19.4277ZM9.75 18.6777C9.3375 18.6777 9 19.0152 9 19.4277V20.9277C9 21.3402 9.3375 21.6777 9.75 21.6777H11.25C11.6625 21.6777 12 21.3402 12 20.9277V19.4277C12 19.0152 11.6625 18.6777 11.25 18.6777H9.75ZM15 19.4277V20.9277C15 21.3402 15.3375 21.6777 15.75 21.6777H17.25C17.6625 21.6777 18 21.3402 18 20.9277V19.4277C18 19.0152 17.6625 18.6777 17.25 18.6777H15.75C15.3375 18.6777 15 19.0152 15 19.4277Z" fill="white"/>
</g>
<defs>
<clipPath id="clip0_328_144">
<rect width="21" height="24" fill="white" transform="translate(0 0.677734)"/>
</clipPath>
</defs>
</svg>
