<svg width="24" height="25" viewBox="0 0 24 25" fill="none" xmlns="http://www.w3.org/2000/svg">
<path d="M21.533 7.78948C21.5482 8.00267 21.5482 8.21591 21.5482 8.42909C21.5482 14.9316 16.599 22.424 7.5533 22.424C4.76648 22.424 2.17767 21.6169 0 20.2159C0.395953 20.2616 0.776625 20.2768 1.18781 20.2768C3.48727 20.2768 5.60405 19.5002 7.29441 18.1753C5.13197 18.1296 3.31978 16.7134 2.69541 14.7641C3 14.8098 3.30455 14.8402 3.62437 14.8402C4.06598 14.8402 4.50764 14.7793 4.91878 14.6727C2.66498 14.2159 0.974578 12.2362 0.974578 9.84533V9.78444C1.62937 10.1499 2.39086 10.3783 3.19791 10.4088C1.87303 9.5255 1.00505 8.01791 1.00505 6.31231C1.00505 5.39863 1.24866 4.56106 1.67508 3.83009C4.09641 6.81486 7.73602 8.76406 11.8172 8.9773C11.7411 8.61181 11.6954 8.23114 11.6954 7.85042C11.6954 5.13973 13.8883 2.93164 16.6141 2.93164C18.0304 2.93164 19.3095 3.52555 20.208 4.48494C21.3197 4.27175 22.3857 3.86056 23.3299 3.29713C22.9643 4.43928 22.1877 5.39867 21.1674 6.00777C22.1573 5.90122 23.1167 5.62705 23.9999 5.24637C23.33 6.22095 22.4924 7.08894 21.533 7.78948Z" fill="white"/>
</svg>
