<svg width="22" height="25" viewBox="0 0 22 25" fill="none" xmlns="http://www.w3.org/2000/svg">
<g clip-path="url(#clip0_452_443)">
<path d="M18.5986 4.74121C16.5527 2.69043 13.8281 1.5625 10.9326 1.5625C4.95605 1.5625 0.0927734 6.42578 0.0927734 12.4023C0.0927734 14.3115 0.59082 16.1768 1.53809 17.8223L0 23.4375L5.74707 21.9287C7.3291 22.793 9.11133 23.2471 10.9277 23.2471H10.9326C16.9043 23.2471 21.875 18.3838 21.875 12.4072C21.875 9.51172 20.6445 6.79199 18.5986 4.74121ZM10.9326 21.4209C9.31152 21.4209 7.72461 20.9863 6.34277 20.166L6.01562 19.9707L2.60742 20.8643L3.51562 17.5391L3.30078 17.1973C2.39746 15.7617 1.92383 14.1064 1.92383 12.4023C1.92383 7.43652 5.9668 3.39355 10.9375 3.39355C13.3447 3.39355 15.6055 4.33105 17.3047 6.03516C19.0039 7.73926 20.0488 10 20.0439 12.4072C20.0439 17.3779 15.8984 21.4209 10.9326 21.4209ZM15.874 14.6729C15.6055 14.5361 14.2725 13.8818 14.0234 13.7939C13.7744 13.7012 13.5938 13.6572 13.4131 13.9307C13.2324 14.2041 12.7148 14.8096 12.5537 14.9951C12.3975 15.1758 12.2363 15.2002 11.9678 15.0635C10.376 14.2676 9.33105 13.6426 8.28125 11.8408C8.00293 11.3623 8.55957 11.3965 9.07715 10.3613C9.16504 10.1807 9.12109 10.0244 9.05273 9.8877C8.98438 9.75098 8.44238 8.41797 8.21777 7.87598C7.99805 7.34863 7.77344 7.42188 7.60742 7.41211C7.45117 7.40234 7.27051 7.40234 7.08984 7.40234C6.90918 7.40234 6.61621 7.4707 6.36719 7.73926C6.11816 8.0127 5.41992 8.66699 5.41992 10C5.41992 11.333 6.3916 12.6221 6.52344 12.8027C6.66016 12.9834 8.43262 15.7178 11.1523 16.8945C12.8711 17.6367 13.5449 17.7002 14.4043 17.5732C14.9268 17.4951 16.0059 16.9189 16.2305 16.2842C16.4551 15.6494 16.4551 15.1074 16.3867 14.9951C16.3232 14.873 16.1426 14.8047 15.874 14.6729Z" fill="white"/>
</g>
<defs>
<clipPath id="clip0_452_443">
<rect width="21.875" height="25" fill="white"/>
</clipPath>
</defs>
</svg>
