<svg width="106" height="103" viewBox="0 0 106 103" fill="none" xmlns="http://www.w3.org/2000/svg">
<path d="M68.3467 13.4506L55.8765 6.72436V24.6727L68.3467 31.3979V13.4506Z" fill="#1F91D5"/>
<path d="M68.3467 13.4506L80.8125 6.72436V20.1799V24.6727L80.8105 24.6737L68.3467 31.3979V13.4506Z" fill="#D1D2D7"/>
<path d="M68.3467 0L80.8125 6.72436L68.3467 13.4506L55.8788 6.72419L68.3467 0Z" fill="#50C3F0"/>
<path d="M40.6882 77.7711L28.2191 71.0459V88.9911L40.6882 95.7163V77.7711Z" fill="#5591BE"/>
<path d="M28.2195 53.096L15.7545 46.366L15.7548 64.317L28.2191 71.0439L28.2195 53.096Z" fill="#D1D2D7"/>
<path d="M93.2794 13.4536L105.748 20.1789L93.2794 26.9019L80.8125 20.1799L80.8104 20.1788L93.2794 13.4536Z" fill="#F4A618"/>
<path d="M53.1577 102.44V48.5983L53.1576 48.5443L65.5716 41.848L68.3462 43.8168L80.8109 53.0025L93.2789 62.1906L93.2794 26.9019L105.75 20.1794L105.749 73.4129L93.2798 80.1392L93.2789 80.1385L65.6201 59.8198L65.6206 65.2206L65.6234 95.7164L53.1577 102.44Z" fill="white"/>
<path d="M15.7799 28.4459L3.33836 21.6724L3.26358 39.6176L15.7545 46.366L15.7799 28.4459Z" fill="#5591BE"/>
<path d="M15.7545 28.4209L28.2192 21.6977V39.6429L15.7545 46.366V28.4209Z" fill="#D1D2D7"/>
<path d="M15.7545 14.9717L28.2192 21.6949L15.7545 28.4209L3.2888 21.6949L15.7545 14.9717Z" fill="#50C3F0"/>
<path d="M12.4691 75.8796L0 69.1565V87.1027L12.4691 93.8269V75.8796Z" fill="#1F91D5"/>
<path d="M12.4691 75.8796L24.9347 69.1565V87.1027L12.4691 93.8269V75.8796Z" fill="#5591BE"/>
<path d="M12.4691 62.4336L24.9347 69.1565L12.4691 75.8796L0 69.1565L12.4691 62.4336Z" fill="#50C3F0"/>
<path d="M40.689 28.4322L53.1536 35.1529L53.1581 35.1553L40.6909 41.8774L40.689 41.8784L28.22 35.1554L40.689 28.4322Z" fill="#50C3F0"/>
<path d="M68.3462 31.4008L80.8109 38.1249V24.675L68.3462 31.4008Z" fill="#50C3F0"/>
<path d="M80.8125 20.1799V24.6727L80.8105 24.6737L80.8109 24.675V38.1249V53.0025L93.2789 62.1906L93.2794 26.9019L80.8125 20.1799Z" fill="#F07024"/>
<path d="M40.6882 77.7711V95.7163L53.1577 102.44V84.4933V66.5487V48.5983L40.6909 41.8774L40.689 41.8784V41.8806V59.8258L40.6884 64.317L40.6882 77.7711Z" fill="#D1D2D7"/>
<path d="M28.2191 71.0439L40.6882 77.7711L40.6884 64.317L28.2191 71.0439Z" fill="#50C3F0"/>
<path d="M15.7545 46.366L28.2195 53.096L28.2192 39.6429L15.7545 46.366Z" fill="#50C3F0"/>
<path d="M40.689 41.8806L28.22 35.1554L28.2192 39.6429L28.2195 53.096L40.689 59.8258V41.8806Z" fill="#5591BE"/>
<path d="M28.2195 53.096L28.2191 71.0439L40.6884 64.317L40.689 59.8258L28.2195 53.096Z" fill="#1F91D5"/>
<path d="M93.2789 80.1399V80.1385L65.6201 59.8198L65.6206 65.2206L93.2789 80.1399Z" fill="#F4A618"/>
<path d="M68.3467 31.3979L55.8765 24.6727V36.6175L65.5716 41.848L68.3462 43.8168V31.4008L68.3467 31.3979Z" fill="#D1D2D7"/>
<path d="M80.8109 38.1249L68.3462 31.4008V43.8168L80.8109 53.0025V38.1249Z" fill="#5591BE"/>
<path d="M53.1577 35.1507L53.1536 35.1529L53.1581 35.1553L40.6909 41.8774L53.1577 48.5983L53.1576 48.5443L65.5716 41.848L55.8765 36.6175L53.1577 35.1507Z" fill="#5591BE"/>
</svg>
