<svg width="400" height="103" viewBox="0 0 400 103" fill="none" xmlns="http://www.w3.org/2000/svg">
<path d="M68.3467 13.4506L55.8765 6.72436V24.6727L68.3467 31.3979V13.4506Z" fill="#1F91D5"/>
<path d="M68.3467 13.4506L80.8125 6.72436V20.1799V24.6727L80.8105 24.6737L68.3467 31.3979V13.4506Z" fill="#D1D2D7"/>
<path d="M68.3467 0L80.8125 6.72436L68.3467 13.4506L55.8788 6.72419L68.3467 0Z" fill="#50C3F0"/>
<path d="M40.6882 77.7711L28.2191 71.0459V88.9911L40.6882 95.7163V77.7711Z" fill="#5591BE"/>
<path d="M28.2195 53.096L15.7545 46.366L15.7548 64.317L28.2191 71.0439L28.2195 53.096Z" fill="#D1D2D7"/>
<path d="M93.2794 13.4536L105.748 20.1789L93.2794 26.9019L80.8125 20.1799L80.8104 20.1788L93.2794 13.4536Z" fill="#F4A618"/>
<path d="M53.1577 102.44V48.5983L53.1576 48.5443L65.5716 41.848L68.3462 43.8168L80.8109 53.0025L93.2789 62.1906L93.2794 26.9019L105.75 20.1794L105.749 73.4129L93.2798 80.1392L93.2789 80.1385L65.6201 59.8198L65.6206 65.2206L65.6234 95.7164L53.1577 102.44Z" fill="white"/>
<path d="M15.7799 28.4459L3.33836 21.6724L3.26358 39.6176L15.7545 46.366L15.7799 28.4459Z" fill="#5591BE"/>
<path d="M15.7545 28.4209L28.2192 21.6977V39.6429L15.7545 46.366V28.4209Z" fill="#D1D2D7"/>
<path d="M15.7545 14.9717L28.2192 21.6949L15.7545 28.4209L3.2888 21.6949L15.7545 14.9717Z" fill="#50C3F0"/>
<path d="M12.4691 75.8796L0 69.1565V87.1027L12.4691 93.8269V75.8796Z" fill="#1F91D5"/>
<path d="M12.4691 75.8796L24.9347 69.1565V87.1027L12.4691 93.8269V75.8796Z" fill="#5591BE"/>
<path d="M12.4691 62.4336L24.9347 69.1565L12.4691 75.8796L0 69.1565L12.4691 62.4336Z" fill="#50C3F0"/>
<path d="M40.689 28.4322L53.1536 35.1529L53.1581 35.1553L40.6909 41.8774L40.689 41.8784L28.22 35.1554L40.689 28.4322Z" fill="#50C3F0"/>
<path d="M68.3462 31.4008L80.8109 38.1249V24.675L68.3462 31.4008Z" fill="#50C3F0"/>
<path d="M80.8125 20.1799V24.6727L80.8105 24.6737L80.8109 24.675V38.1249V53.0025L93.2789 62.1906L93.2794 26.9019L80.8125 20.1799Z" fill="#F07024"/>
<path d="M40.6882 77.7711V95.7163L53.1577 102.44V84.4933V66.5487V48.5983L40.6909 41.8774L40.689 41.8784V41.8806V59.8258L40.6884 64.317L40.6882 77.7711Z" fill="#D1D2D7"/>
<path d="M28.2191 71.0439L40.6882 77.7711L40.6884 64.317L28.2191 71.0439Z" fill="#50C3F0"/>
<path d="M15.7545 46.366L28.2195 53.096L28.2192 39.6429L15.7545 46.366Z" fill="#50C3F0"/>
<path d="M40.689 41.8806L28.22 35.1554L28.2192 39.6429L28.2195 53.096L40.689 59.8258V41.8806Z" fill="#5591BE"/>
<path d="M28.2195 53.096L28.2191 71.0439L40.6884 64.317L40.689 59.8258L28.2195 53.096Z" fill="#1F91D5"/>
<path d="M93.2789 80.1399V80.1385L65.6201 59.8198L65.6206 65.2206L93.2789 80.1399Z" fill="#F4A618"/>
<path d="M68.3467 31.3979L55.8765 24.6727V36.6175L65.5716 41.848L68.3462 43.8168V31.4008L68.3467 31.3979Z" fill="#D1D2D7"/>
<path d="M80.8109 38.1249L68.3462 31.4008V43.8168L80.8109 53.0025V38.1249Z" fill="#5591BE"/>
<path d="M53.1577 35.1507L53.1536 35.1529L53.1581 35.1553L40.6909 41.8774L53.1577 48.5983L53.1576 48.5443L65.5716 41.848L55.8765 36.6175L53.1577 35.1507Z" fill="#5591BE"/>
<path d="M125.703 32.6606C126.417 32.6606 127.012 32.6899 127.491 32.7463C127.965 32.8027 128.383 32.9238 128.74 33.1077C129.097 33.2936 129.44 33.5484 129.768 33.8743C130.096 34.2023 130.468 34.6347 130.885 35.1757L147.505 55.9713C147.624 56.1697 147.818 56.27 148.086 56.27H148.489C148.727 56.27 148.846 56.128 148.846 55.8439V33.5986C148.846 32.974 149.172 32.6606 149.828 32.6606H154.52C155.174 32.6606 155.502 32.974 155.502 33.5986V58.0602C155.502 59.792 155.174 60.9639 154.52 61.5759C153.864 62.1859 152.851 62.4909 151.482 62.4909H147.639C146.954 62.4909 146.381 62.4638 145.92 62.4053C145.458 62.3489 145.048 62.2361 144.691 62.0648C144.334 61.8956 143.983 61.647 143.641 61.319C143.298 60.9931 142.903 60.5461 142.456 59.9779L125.792 39.1803C125.613 38.9818 125.419 38.8815 125.212 38.8815H124.809C124.57 38.8815 124.451 39.0257 124.451 39.3077V61.553C124.451 62.1797 124.123 62.4909 123.47 62.4909H118.778C118.093 62.4909 117.75 62.1797 117.75 61.553V37.0934C117.75 35.3596 118.078 34.1877 118.734 33.5777C119.388 32.9656 120.401 32.6606 121.771 32.6606H125.703Z" fill="#1F91D5"/>
<path d="M184.051 39.0957C185.57 39.0957 186.827 39.2169 187.826 39.4571C188.824 39.6994 189.614 40.0963 190.195 40.652C190.775 41.2056 191.185 41.9304 191.423 42.8245C191.661 43.7186 191.78 44.8069 191.78 46.0854V50.1338C191.78 51.0424 191.571 51.6754 191.156 52.0305C190.738 52.3856 190.096 52.5611 189.234 52.5611H166.671V53.5847C166.671 54.9216 167.007 55.8867 167.678 56.4821C168.346 57.0795 169.65 57.3782 171.586 57.3782H190.216C190.752 57.3782 191.02 57.6331 191.02 58.1449V61.7254C191.02 62.2351 190.752 62.492 190.216 62.492H170.962C168.935 62.492 167.245 62.3353 165.89 62.022C164.534 61.7107 163.448 61.2073 162.629 60.5096C161.808 59.814 161.221 58.9199 160.864 57.8253C160.506 56.7328 160.327 55.4167 160.327 53.8834V47.7461C160.327 46.2128 160.506 44.8988 160.864 43.8042C161.221 42.7117 161.808 41.8155 162.629 41.1199C163.448 40.4243 164.534 39.9125 165.89 39.5866C167.245 39.2587 168.935 39.0957 170.962 39.0957H184.051ZM166.671 48.7697H184.765C185.273 48.7697 185.526 48.5273 185.526 48.0448V46.2546C185.526 45.3751 185.332 44.7505 184.945 44.3808C184.557 44.011 183.842 43.8251 182.8 43.8251H171.586C169.65 43.8251 168.346 44.1176 167.678 44.7004C167.007 45.2832 166.671 46.2546 166.671 47.6186V48.7697Z" fill="#1F91D5"/>
<path d="M199.553 39.0957V33.4702C199.553 32.8456 199.881 32.5322 200.537 32.5322H204.96C205.613 32.5322 205.941 32.8456 205.941 33.4702V39.0957H213.76C214.297 39.0957 214.565 39.3506 214.565 39.8624V43.3572C214.565 43.869 214.297 44.1238 213.76 44.1238H205.941V54.0108C205.941 55.2036 206.194 56.0789 206.702 56.6325C207.207 57.1861 208.206 57.4639 209.695 57.4639H214.03C214.565 57.4639 214.834 57.7187 214.834 58.2305V61.7254C214.834 62.2351 214.565 62.492 214.03 62.492H208.624C206.835 62.492 205.361 62.3353 204.199 62.022C203.038 61.7107 202.106 61.2136 201.408 60.5305C200.707 59.8495 200.224 58.97 199.957 57.89C199.687 56.81 199.553 55.517 199.553 54.0108V44.1238H195.309C194.774 44.1238 194.504 43.869 194.504 43.3572V39.8624C194.504 39.3506 194.774 39.0957 195.309 39.0957H199.553Z" fill="#1F91D5"/>
<path d="M243.918 32.6606C247.341 32.6606 249.8 33.4001 251.29 34.877C252.779 36.3539 253.523 38.541 253.523 41.4384V43.8679C253.523 46.312 253.002 48.2442 251.96 49.6647C250.916 51.0852 249.219 51.9939 246.867 52.3908L254.506 61.4255C254.655 61.5676 254.699 61.7807 254.64 62.0648C254.58 62.3489 254.341 62.4909 253.926 62.4909H248.162C247.774 62.4909 247.506 62.4491 247.358 62.3635C247.208 62.2778 247.059 62.1358 246.911 61.9373L239.852 53.0739H225.422V61.553C225.422 62.1797 225.094 62.4909 224.438 62.4909H219.613C218.927 62.4909 218.585 62.1797 218.585 61.553V33.9391C218.585 33.0868 219.032 32.6606 219.926 32.6606H243.918ZM225.422 47.8745H242.533C244.051 47.8745 245.123 47.5611 245.75 46.9366C246.374 46.312 246.688 45.3594 246.688 44.081V42.2928C246.688 41.0123 246.374 40.0618 245.75 39.4372C245.123 38.8126 244.051 38.4993 242.533 38.4993H226.003C225.614 38.4993 225.422 38.6685 225.422 39.0111V47.8745Z" fill="#1F91D5"/>
<path d="M280.24 39.0957C281.759 39.0957 283.017 39.2169 284.015 39.4571C285.014 39.6994 285.803 40.0963 286.384 40.652C286.965 41.2056 287.374 41.9304 287.612 42.8245C287.851 43.7186 287.97 44.8069 287.97 46.0854V50.1338C287.97 51.0424 287.761 51.6754 287.345 52.0305C286.927 52.3856 286.286 52.5611 285.423 52.5611H262.86V53.5847C262.86 54.9216 263.197 55.8867 263.865 56.4821C264.536 57.0795 265.839 57.3782 267.776 57.3782H286.405C286.942 57.3782 287.209 57.6331 287.209 58.1449V61.7254C287.209 62.2351 286.942 62.492 286.405 62.492H267.151C265.125 62.492 263.435 62.3353 262.079 62.022C260.723 61.7107 259.637 61.2073 258.818 60.5096C257.997 59.814 257.41 58.9199 257.053 57.8253C256.696 56.7328 256.516 55.4167 256.516 53.8834V47.7461C256.516 46.2128 256.696 44.8988 257.053 43.8042C257.41 42.7117 257.997 41.8155 258.818 41.1199C259.637 40.4243 260.723 39.9125 262.079 39.5866C263.435 39.2587 265.125 39.0957 267.151 39.0957H280.24ZM262.86 48.7697H280.955C281.46 48.7697 281.715 48.5273 281.715 48.0448V46.2546C281.715 45.3751 281.521 44.7505 281.135 44.3808C280.746 44.011 280.032 43.8251 278.989 43.8251H267.776C265.839 43.8251 264.536 44.1176 263.865 44.7004C263.197 45.2832 262.86 46.2546 262.86 47.6186V48.7697Z" fill="#1F91D5"/>
<path d="M312.586 39.0957C314.581 39.0957 316.265 39.2587 317.635 39.5866C319.003 39.9125 320.098 40.4243 320.919 41.1199C321.738 41.8155 322.325 42.7117 322.684 43.8042C323.041 44.8988 323.219 46.2128 323.219 47.7461V59.0828C323.219 59.7638 323.167 60.3258 323.062 60.7665C322.958 61.2073 322.78 61.5541 322.527 61.8089C322.273 62.0659 321.938 62.2434 321.523 62.3416C321.105 62.4419 320.568 62.492 319.914 62.492H298.647C297.337 62.492 296.242 62.3708 295.363 62.1285C294.485 61.8883 293.777 61.5269 293.24 61.0423C292.706 60.5597 292.325 59.9351 292.102 59.1685C291.878 58.3997 291.768 57.491 291.768 56.4403V54.3952C291.768 53.5137 291.878 52.7261 292.102 52.0305C292.325 51.3328 292.706 50.7437 293.24 50.2612C293.777 49.7786 294.485 49.4151 295.363 49.1749C296.242 48.9326 297.337 48.8114 298.647 48.8114H316.831V48.003C316.831 47.3199 316.756 46.7392 316.607 46.2546C316.457 45.772 316.204 45.3814 315.847 45.0827C315.49 44.7839 314.999 44.5646 314.374 44.4225C313.748 44.2805 312.943 44.2095 311.962 44.2095H293.286C292.749 44.2095 292.482 43.9546 292.482 43.4428V39.8624C292.482 39.3506 292.749 39.0957 293.286 39.0957H312.586ZM315.536 57.8044C316.012 57.8044 316.346 57.6979 316.54 57.4848C316.733 57.2717 316.831 56.8957 316.831 56.3547V52.605H300.479C299.555 52.605 298.908 52.7825 298.536 53.1377C298.162 53.4928 297.976 54.0108 297.976 54.6939V55.588C297.976 56.3547 298.162 56.9166 298.536 57.2717C298.908 57.6268 299.555 57.8044 300.479 57.8044H315.536Z" fill="#1F91D5"/>
<path d="M355.029 39.0957V31.4669C355.029 30.8423 355.357 30.531 356.013 30.531H360.389C361.045 30.531 361.373 30.8423 361.373 31.4669V53.8834C361.373 55.4167 361.193 56.7328 360.836 57.8253C360.479 58.9199 359.892 59.814 359.073 60.5096C358.252 61.2073 357.157 61.7107 355.789 62.022C354.419 62.3353 352.735 62.492 350.74 62.492H338.229C336.205 62.492 334.515 62.3353 333.16 62.022C331.804 61.7107 330.718 61.2073 329.899 60.5096C329.078 59.814 328.491 58.9199 328.134 57.8253C327.776 56.7328 327.597 55.4167 327.597 53.8834V47.7461C327.597 46.2128 327.776 44.8988 328.134 43.8042C328.491 42.7117 329.078 41.8155 329.899 41.1199C330.718 40.4243 331.804 39.9125 333.16 39.5866C334.515 39.2587 336.205 39.0957 338.229 39.0957H355.029ZM350.114 57.3782C351.097 57.3782 351.902 57.2989 352.526 57.1443C353.153 56.9876 353.65 56.7328 354.024 56.3755C354.396 56.0204 354.657 55.5462 354.805 54.9488C354.954 54.3513 355.029 53.5993 355.029 52.6906V44.2095H338.856C337.901 44.2095 337.114 44.2889 336.487 44.4434C335.863 44.6001 335.363 44.8571 334.992 45.2101C334.618 45.5673 334.359 46.0498 334.21 46.6598C334.06 47.2719 333.987 48.0176 333.987 48.8971V52.6906C333.987 53.5993 334.06 54.3513 334.21 54.9488C334.359 55.5462 334.618 56.0204 334.992 56.3755C335.363 56.7328 335.863 56.9876 336.487 57.1443C337.114 57.2989 337.901 57.3782 338.856 57.3782H350.114Z" fill="#1F91D5"/>
<path d="M399.214 39.0957C399.542 39.0957 399.757 39.2022 399.861 39.4153C399.966 39.6284 399.943 39.877 399.795 40.1611L382.638 69.0116C382.043 70.006 381.201 70.7371 380.115 71.2071C379.026 71.675 377.516 71.909 375.579 71.909H372.452C371.915 71.909 371.648 71.6541 371.648 71.1423V67.6475C371.648 67.1357 371.915 66.8809 372.452 66.8809H375.088C376.221 66.8809 376.979 66.5529 377.368 65.9012L379.78 61.8528C379.035 61.7964 378.462 61.6251 378.059 61.341C377.658 61.0569 377.278 60.6161 376.921 60.0208L364.857 40.1611C364.708 39.877 364.685 39.6284 364.79 39.4153C364.894 39.2022 365.11 39.0957 365.438 39.0957H370.576C371.082 39.0957 371.439 39.2941 371.648 39.6931L381.566 56.0998C381.804 56.4967 381.99 56.7599 382.124 56.8873C382.26 57.0147 382.429 57.0795 382.638 57.0795L393.137 39.6931C393.346 39.2941 393.703 39.0957 394.211 39.0957H399.214Z" fill="#1F91D5"/>
</svg>
