<svg width="334" height="86" viewBox="0 0 334 86" fill="#3A3B3A" xmlns="http://www.w3.org/2000/svg">
<path d="M57.0804 11.292L46.666 5.64486V20.7131L57.0804 26.3593V11.292Z" fill=""/>
<path d="M57.0802 1.90735e-06L67.4898 5.64529L57.0802 11.2924L46.6677 5.64529L57.0802 1.90735e-06Z" fill=""/>
<path d="M67.4897 32.0067L57.0801 26.3614V41.4287L67.4897 47.0731V32.0067Z" fill=""/>
<path fill-rule="evenodd" clip-rule="evenodd" d="M67.4897 20.7152V32.0067L57.0801 26.3624L67.4897 20.7152Z" fill=""/>
<path d="M33.9808 65.2904L23.5674 59.6442V74.7097L33.9808 80.3559V65.2904Z" fill=""/>
<path fill-rule="evenodd" clip-rule="evenodd" d="M23.5674 44.5751V59.6415L33.9818 53.9953V50.2276L23.5674 44.5751Z" fill=""/>
<path fill-rule="evenodd" clip-rule="evenodd" d="M23.5673 33.2831V44.5755L13.1577 38.9284L23.5673 33.2831Z" fill=""/>
<path d="M77.9032 11.2946L88.3166 16.9408L77.9032 22.5843L67.4897 16.9408L77.9032 11.2946Z" fill=""/>
<path d="M44.395 86V40.799V40.7539L54.8123 35.1059L77.9033 52.2111V22.5846L88.3177 16.9403L88.3168 61.6322L77.9033 67.2784L54.8037 50.2201L54.8056 80.3556L44.395 86Z" fill=""/>
<path d="M13.1784 23.8809L2.78704 18.1942L2.72559 33.2597L13.1131 38.9464L13.1784 23.8809Z" fill=""/>
<path d="M13.1571 12.5691L23.5667 18.2134L13.1571 23.8596L2.74658 18.2134L13.1571 12.5691Z" fill=""/>
<path d="M10.4134 63.7024L0 58.0581V73.1244L10.4134 78.7697V63.7024Z" fill=""/>
<path d="M10.4134 52.4143L20.825 58.0577L10.4134 63.703L0 58.0577L10.4134 52.4143Z" fill=""/>
<path d="M33.9815 23.8694L44.395 29.5138L33.9815 35.1582L23.5671 29.5138L33.9815 23.8694Z" fill=""/>
<path d="M104.981 27.4191C105.578 27.4191 106.075 27.4437 106.475 27.491C106.871 27.5384 107.22 27.6401 107.518 27.7944C107.816 27.9505 108.102 28.1644 108.376 28.438C108.65 28.7133 108.961 29.0764 109.31 29.5306L123.19 46.9888C123.289 47.1554 123.451 47.2395 123.675 47.2395H124.011C124.21 47.2395 124.31 47.1203 124.31 46.8818V28.2065C124.31 27.6822 124.582 27.4191 125.13 27.4191H129.048C129.594 27.4191 129.868 27.6822 129.868 28.2065V48.7425C129.868 50.1963 129.594 51.1801 129.048 51.694C128.5 52.2061 127.654 52.4621 126.511 52.4621H123.301C122.729 52.4621 122.251 52.4393 121.866 52.3902C121.48 52.3428 121.138 52.2481 120.84 52.1043C120.541 51.9623 120.248 51.7536 119.962 51.4783C119.676 51.2047 119.346 50.8294 118.973 50.3524L105.056 32.8924C104.906 32.7258 104.744 32.6417 104.571 32.6417H104.235C104.036 32.6417 103.936 32.7627 103.936 32.9994V51.6747C103.936 52.2008 103.662 52.4621 103.116 52.4621H99.1979C98.6257 52.4621 98.3396 52.2008 98.3396 51.6747V31.1405C98.3396 29.6849 98.6135 28.7011 99.1613 28.189C99.7074 27.6752 100.553 27.4191 101.698 27.4191H104.981Z" fill=""/>
<path d="M153.711 32.8215C154.979 32.8215 156.03 32.9232 156.864 33.1248C157.698 33.3283 158.357 33.6615 158.842 34.128C159.327 34.5927 159.669 35.2012 159.868 35.9518C160.067 36.7024 160.166 37.6161 160.166 38.6894V42.0881C160.166 42.8509 159.992 43.3823 159.645 43.6804C159.296 43.9786 158.76 44.1259 158.039 44.1259H139.196V44.9852C139.196 46.1076 139.477 46.9178 140.037 47.4176C140.595 47.9191 141.684 48.1699 143.301 48.1699H158.859C159.308 48.1699 159.531 48.3839 159.531 48.8135V51.8194C159.531 52.2473 159.308 52.463 158.859 52.463H142.779C141.087 52.463 139.676 52.3315 138.544 52.0684C137.411 51.8071 136.504 51.3845 135.82 50.7987C135.135 50.2148 134.644 49.4642 134.346 48.5452C134.048 47.628 133.898 46.5232 133.898 45.236V40.0836C133.898 38.7963 134.048 37.6933 134.346 36.7743C134.644 35.8571 135.135 35.1048 135.82 34.5208C136.504 33.9368 137.411 33.5072 138.544 33.2336C139.676 32.9582 141.087 32.8215 142.779 32.8215H153.711ZM139.196 40.9429H154.308C154.732 40.9429 154.943 40.7395 154.943 40.3343V38.8314C154.943 38.0931 154.781 37.5687 154.458 37.2583C154.133 36.9479 153.537 36.7919 152.666 36.7919H143.301C141.684 36.7919 140.595 37.0374 140.037 37.5267C139.477 38.0159 139.196 38.8314 139.196 39.9766V40.9429Z" fill=""/>
<path d="M166.658 32.8215V28.0987C166.658 27.5744 166.932 27.3113 167.48 27.3113H171.173C171.719 27.3113 171.993 27.5744 171.993 28.0987V32.8215H178.523C178.971 32.8215 179.195 33.0354 179.195 33.4651V36.399C179.195 36.8287 178.971 37.0426 178.523 37.0426H171.993V45.3429C171.993 46.3443 172.204 47.0791 172.628 47.5439C173.05 48.0086 173.884 48.2418 175.128 48.2418H178.748C179.195 48.2418 179.42 48.4558 179.42 48.8854V51.8194C179.42 52.2473 179.195 52.463 178.748 52.463H174.233C172.74 52.463 171.508 52.3315 170.538 52.0684C169.568 51.8071 168.79 51.3897 168.207 50.8163C167.621 50.2446 167.218 49.5063 166.995 48.5996C166.77 47.6929 166.658 46.6074 166.658 45.3429V37.0426H163.113C162.666 37.0426 162.441 36.8287 162.441 36.399V33.4651C162.441 33.0354 162.666 32.8215 163.113 32.8215H166.658Z" fill=""/>
<path d="M203.709 27.4191C206.569 27.4191 208.622 28.0399 209.866 29.2798C211.11 30.5197 211.731 32.3558 211.731 34.7882V36.8278C211.731 38.8796 211.297 40.5018 210.426 41.6943C209.554 42.8868 208.137 43.6497 206.173 43.9829L212.553 51.5677C212.677 51.687 212.713 51.8658 212.664 52.1043C212.614 52.3428 212.415 52.4621 212.068 52.4621H207.254C206.93 52.4621 206.706 52.427 206.583 52.3551C206.457 52.2832 206.333 52.164 206.209 51.9974L200.314 44.5564H188.263V51.6747C188.263 52.2008 187.989 52.4621 187.441 52.4621H183.411C182.839 52.4621 182.552 52.2008 182.552 51.6747V28.4924C182.552 27.7769 182.926 27.4191 183.673 27.4191H203.709ZM188.263 40.1914H202.553C203.821 40.1914 204.716 39.9283 205.239 39.404C205.761 38.8796 206.023 38.0799 206.023 37.0066V35.5055C206.023 34.4304 205.761 33.6325 205.239 33.1081C204.716 32.5838 203.821 32.3207 202.553 32.3207H188.748C188.423 32.3207 188.263 32.4628 188.263 32.7504V40.1914Z" fill=""/>
<path d="M234.044 32.8215C235.313 32.8215 236.363 32.9232 237.197 33.1248C238.031 33.3283 238.69 33.6615 239.175 34.128C239.66 34.5927 240.002 35.2012 240.201 35.9518C240.4 36.7024 240.499 37.6161 240.499 38.6894V42.0881C240.499 42.8509 240.325 43.3823 239.978 43.6804C239.629 43.9786 239.093 44.1259 238.373 44.1259H219.529V44.9852C219.529 46.1076 219.81 46.9178 220.368 47.4176C220.928 47.9191 222.017 48.1699 223.634 48.1699H239.193C239.641 48.1699 239.864 48.3839 239.864 48.8135V51.8194C239.864 52.2473 239.641 52.463 239.193 52.463H223.113C221.42 52.463 220.009 52.3315 218.877 52.0684C217.745 51.8071 216.837 51.3845 216.154 50.7987C215.468 50.2148 214.978 49.4642 214.679 48.5452C214.381 47.628 214.231 46.5232 214.231 45.236V40.0836C214.231 38.7963 214.381 37.6933 214.679 36.7743C214.978 35.8571 215.468 35.1048 216.154 34.5208C216.837 33.9368 217.745 33.5072 218.877 33.2336C220.009 32.9582 221.42 32.8215 223.113 32.8215H234.044ZM219.529 40.9429H234.641C235.063 40.9429 235.276 40.7395 235.276 40.3343V38.8314C235.276 38.0931 235.114 37.5687 234.791 37.2583C234.467 36.9479 233.87 36.7919 232.999 36.7919H223.634C222.017 36.7919 220.928 37.0374 220.368 37.5267C219.81 38.0159 219.529 38.8314 219.529 39.9766V40.9429Z" fill=""/>
<path d="M261.058 32.8215C262.724 32.8215 264.13 32.9582 265.275 33.2336C266.417 33.5072 267.332 33.9368 268.017 34.5208C268.701 35.1048 269.191 35.8571 269.491 36.7743C269.79 37.6933 269.938 38.7963 269.938 40.0836V49.601C269.938 50.1727 269.894 50.6444 269.807 51.0144C269.72 51.3845 269.572 51.6756 269.361 51.8895C269.148 52.1053 268.869 52.2543 268.521 52.3367C268.173 52.4209 267.724 52.463 267.178 52.463H249.416C248.322 52.463 247.408 52.3613 246.674 52.1579C245.941 51.9562 245.35 51.6528 244.901 51.2459C244.455 50.8408 244.137 50.3165 243.951 49.6729C243.764 49.0275 243.671 48.2646 243.671 47.3825V45.6656C243.671 44.9256 243.764 44.2644 243.951 43.6804C244.137 43.0947 244.455 42.6001 244.901 42.195C245.35 41.7899 245.941 41.4848 246.674 41.2831C247.408 41.0797 248.322 40.978 249.416 40.978H264.603V40.2993C264.603 39.7258 264.54 39.2383 264.416 38.8314C264.291 38.4263 264.08 38.0984 263.781 37.8476C263.483 37.5968 263.073 37.4127 262.551 37.2934C262.028 37.1742 261.356 37.1145 260.536 37.1145H244.94C244.491 37.1145 244.268 36.9006 244.268 36.4709V33.4651C244.268 33.0354 244.491 32.8215 244.94 32.8215H261.058ZM263.521 48.5277C263.919 48.5277 264.198 48.4382 264.361 48.2594C264.521 48.0805 264.603 47.7648 264.603 47.3106V44.1627H250.946C250.175 44.1627 249.634 44.3118 249.324 44.6099C249.012 44.908 248.856 45.3429 248.856 45.9164V46.667C248.856 47.3106 249.012 47.7824 249.324 48.0805C249.634 48.3786 250.175 48.5277 250.946 48.5277H263.521Z" fill=""/>
<path d="M296.504 32.8215V26.4169C296.504 25.8925 296.778 25.6312 297.326 25.6312H300.981C301.529 25.6312 301.802 25.8925 301.802 26.4169V45.236C301.802 46.5232 301.652 47.628 301.354 48.5452C301.056 49.4642 300.566 50.2148 299.882 50.7987C299.196 51.3845 298.282 51.8071 297.139 52.0684C295.995 52.3315 294.589 52.463 292.922 52.463H282.474C280.783 52.463 279.372 52.3315 278.24 52.0684C277.108 51.8071 276.2 51.3845 275.517 50.7987C274.831 50.2148 274.341 49.4642 274.042 48.5452C273.744 47.628 273.594 46.5232 273.594 45.236V40.0836C273.594 38.7963 273.744 37.6933 274.042 36.7743C274.341 35.8571 274.831 35.1048 275.517 34.5208C276.2 33.9368 277.108 33.5072 278.24 33.2336C279.372 32.9582 280.783 32.8215 282.474 32.8215H296.504ZM292.399 48.1699C293.221 48.1699 293.892 48.1033 294.414 47.9735C294.937 47.842 295.353 47.628 295.665 47.3281C295.975 47.03 296.194 46.6319 296.317 46.1304C296.441 45.6288 296.504 44.9975 296.504 44.2346V37.1145H282.997C282.2 37.1145 281.542 37.1812 281.019 37.311C280.497 37.4425 280.08 37.6582 279.77 37.9546C279.458 38.2544 279.241 38.6596 279.117 39.1716C278.992 39.6855 278.931 40.3116 278.931 41.0499V44.2346C278.931 44.9975 278.992 45.6288 279.117 46.1304C279.241 46.6319 279.458 47.03 279.77 47.3281C280.08 47.628 280.497 47.842 281.019 47.9735C281.542 48.1033 282.2 48.1699 282.997 48.1699H292.399Z" fill=""/>
<path d="M333.406 32.8215C333.679 32.8215 333.859 32.9109 333.946 33.0898C334.034 33.2687 334.014 33.4773 333.891 33.7158L319.562 57.9363C319.065 58.7711 318.362 59.3849 317.455 59.7795C316.546 60.1723 315.284 60.3687 313.667 60.3687H311.055C310.607 60.3687 310.384 60.1548 310.384 59.7251V56.7912C310.384 56.3615 310.607 56.1476 311.055 56.1476H313.257C314.203 56.1476 314.836 55.8722 315.161 55.3251L317.176 51.9264C316.553 51.879 316.075 51.7352 315.738 51.4967C315.403 51.2582 315.086 50.8882 314.787 50.3884L304.712 33.7158C304.588 33.4773 304.569 33.2687 304.656 33.0898C304.744 32.9109 304.923 32.8215 305.197 32.8215H309.489C309.911 32.8215 310.209 32.9881 310.384 33.323L318.667 47.0967C318.866 47.4299 319.021 47.6508 319.133 47.7578C319.246 47.8648 319.388 47.9192 319.562 47.9192L328.331 33.323C328.505 32.9881 328.803 32.8215 329.227 32.8215H333.406Z" fill=""/>
</svg>
