<svg width="89" height="86" viewBox="0 0 89 86" fill="#3A3B3A" xmlns="http://www.w3.org/2000/svg">
<path d="M57.0804 11.292L46.666 5.64486V20.7131L57.0804 26.3593V11.292Z" fill=""/>
<path d="M57.0802 1.67011e-06L67.4898 5.64529L57.0802 11.2924L46.6677 5.64529L57.0802 1.67011e-06Z" fill=""/>
<path d="M67.4897 32.0067L57.0801 26.3614V41.4287L67.4897 47.0731V32.0067Z" fill=""/>
<path fill-rule="evenodd" clip-rule="evenodd" d="M67.4897 20.7152V32.0067L57.0801 26.3624L67.4897 20.7152Z" fill=""/>
<path d="M33.9808 65.2904L23.5674 59.6442V74.7097L33.9808 80.3559V65.2904Z" fill=""/>
<path fill-rule="evenodd" clip-rule="evenodd" d="M23.5674 44.5751V59.6415L33.9818 53.9953V50.2276L23.5674 44.5751Z" fill=""/>
<path fill-rule="evenodd" clip-rule="evenodd" d="M23.5673 33.2831V44.5755L13.1577 38.9284L23.5673 33.2831Z" fill=""/>
<path d="M77.9032 11.2946L88.3166 16.9408L77.9032 22.5843L67.4897 16.9408L77.9032 11.2946Z" fill=""/>
<path d="M44.395 86V40.799V40.7539L54.8123 35.1059L77.9033 52.2111V22.5846L88.3177 16.9403L88.3168 61.6322L77.9033 67.2784L54.8037 50.2201L54.8056 80.3556L44.395 86Z" fill=""/>
<path d="M13.1784 23.8809L2.78704 18.1942L2.72559 33.2597L13.1131 38.9464L13.1784 23.8809Z" fill=""/>
<path d="M13.1571 12.5691L23.5667 18.2134L13.1571 23.8596L2.74658 18.2134L13.1571 12.5691Z" fill=""/>
<path d="M10.4134 63.7024L0 58.0581V73.1244L10.4134 78.7697V63.7024Z" fill=""/>
<path d="M10.4134 52.4143L20.825 58.0577L10.4134 63.703L0 58.0577L10.4134 52.4143Z" fill=""/>
<path d="M33.9815 23.8694L44.395 29.5138L33.9815 35.1582L23.5671 29.5138L33.9815 23.8694Z" fill=""/>
</svg>
