<svg width="92" height="93" viewBox="0 0 92 93" fill="none" xmlns="http://www.w3.org/2000/svg">
<path d="M58.8949 12.1539L48.1493 6.07606V22.294L58.8949 28.3709V12.1539Z" fill="#1F91D5"/>
<path d="M58.895 12.1539L69.6369 6.07606V22.294L58.895 28.3709V12.1539Z" fill="#D1D2D7"/>
<path d="M58.895 -6.33249e-07L69.6359 6.07593L58.895 12.1538L48.1512 6.07593L58.895 -6.33249e-07Z" fill="#50C3F0"/>
<path d="M69.6354 34.4495L58.8945 28.3735V44.5905L69.6354 50.6665V34.4495Z" fill="#5591BE"/>
<path d="M69.6354 22.2962L80.3782 28.374L69.6354 34.449L58.8945 28.374L69.6354 22.2962Z" fill="#50C3F0"/>
<path d="M58.8949 28.3711L48.1493 22.2942V38.5093L58.8949 44.5862V28.3711Z" fill="#D1D2D7"/>
<path d="M35.0613 70.2735L24.3167 64.1966V80.4117L35.0613 86.4886V70.2735Z" fill="#5591BE"/>
<path d="M35.0613 58.1189L45.8032 64.1948L35.0613 70.2726L24.3167 64.1948L35.0613 58.1189Z" fill="#50C3F0"/>
<path d="M24.317 47.9772L13.576 41.8994V58.1164L24.317 64.1942V47.9772Z" fill="#D1D2D7"/>
<path d="M24.3169 47.9772L35.0616 41.8994V58.1164L24.3169 64.1942V47.9772Z" fill="#1F91D5"/>
<path d="M24.317 35.8232L35.0616 41.8991L24.317 47.977L13.576 41.8991L24.317 35.8232Z" fill="#50C3F0"/>
<path d="M69.6355 50.12L58.8946 44.0441L48.1489 37.9662V54.1832L58.8946 60.2601L69.6355 66.3361L80.3792 72.4139V56.195L69.6355 50.12Z" fill="#F4A618"/>
<path d="M80.3797 24.3084L69.635 18.2334V34.4494L80.3797 40.5254V24.3084Z" fill="#F07024"/>
<path d="M80.3797 12.1566L91.1244 18.2335L80.3797 24.3085L69.635 18.2335L80.3797 12.1566Z" fill="#F4A618"/>
<path d="M80.3797 40.5257L69.635 34.4498V50.6658L80.3797 56.7427V40.5257Z" fill="#F07024"/>
<path d="M45.8065 43.9131L35.0618 37.8391V54.0542L45.8065 60.133V43.9131Z" fill="#D1D2D7"/>
<path d="M45.8065 31.7619L56.5483 37.8388L45.8065 43.9128L35.0618 37.8388L45.8065 31.7619Z" fill="#5591BE"/>
<path d="M45.8065 60.1325L35.0618 54.0547V70.2726L45.8065 76.3476V60.1325Z" fill="#D1D2D7"/>
<path d="M45.8065 76.3471L35.0618 70.273V86.4891L45.8065 92.5641V76.3471Z" fill="#D1D2D7"/>
<path d="M45.8064 92.5637V43.9136V43.8643L56.5549 37.7846L80.3801 56.1953V24.309L91.1257 18.234L91.1248 66.3354L80.3801 72.4132L56.5454 54.0528L56.5482 86.4887L45.8064 92.5637Z" fill="white"/>
<path d="M13.5977 25.7035L2.87669 19.5831L2.81226 35.7982L13.5304 41.9187L13.5977 25.7035Z" fill="#5591BE"/>
<path d="M13.5758 25.6809L24.3167 19.6059V35.821L13.5758 41.896V25.6809Z" fill="#D1D2D7"/>
<path d="M13.5758 13.5284L24.3167 19.6033L13.5758 25.6812L2.83398 19.6033L13.5758 13.5284Z" fill="#50C3F0"/>
<path d="M10.7447 68.5643L0 62.4893V78.7054L10.7447 84.7813V68.5643Z" fill="#1F91D5"/>
<path d="M10.7446 68.5643L21.4865 62.4893V78.7054L10.7446 84.7813V68.5643Z" fill="#5591BE"/>
<path d="M10.7447 56.4146L21.4865 62.4887L10.7447 68.5646L0 62.4887L10.7447 56.4146Z" fill="#50C3F0"/>
<path d="M35.0621 37.8431L24.3174 31.7662V47.9813L35.0621 54.0582V37.8431Z" fill="#5591BE"/>
<path d="M35.0621 25.6911L45.8068 31.7661L35.0621 37.8411L24.3174 31.7661L35.0621 25.6911Z" fill="#50C3F0"/>
</svg>
