<svg width="110" height="210" viewBox="0 0 110 210" fill="none" xmlns="http://www.w3.org/2000/svg">
<path d="M13.9753 123.556C12.6229 128.082 13.6147 139.306 28.4016 147.996C30.9562 149.655 36.0656 154.966 36.0656 162.931V210L44.1803 206.832V158.405C44.1803 155.388 42.7377 148.177 36.9672 143.47C32.9098 140.517 24.0738 132.555 21.1885 124.332C18.8717 123.739 16.4625 123.454 13.9753 123.556Z" fill="#FF5600"/>
<path d="M36.7418 89.0519L18.4836 78.5349L18.3709 104.419L36.7418 115.152V89.0519Z" fill="#729967"/>
<path d="M0 67.8879V93.6853L18.3709 104.419L18.4836 78.5349L0 67.8879Z" fill="#0067BC"/>
<path d="M0 67.8879L18.4836 78.5349V57.2845L0 67.8879Z" fill="#0095DA"/>
<path d="M18.4836 57.2845V78.5349L36.7418 67.7804L18.4836 57.2845Z" fill="#D45987"/>
<path d="M96.0247 123.556C97.3771 128.082 96.3853 139.306 81.5984 147.996C79.0438 149.655 73.9344 154.966 73.9344 162.931V210L65.8197 206.832V158.405C65.8197 155.388 67.2623 148.177 73.0328 143.47C77.0902 140.517 85.9262 132.555 88.8115 124.332C91.1283 123.739 93.5375 123.454 96.0247 123.556Z" fill="#FF8F00"/>
<path d="M54.9999 21.2716V47.5216L72.1311 35.7543V10.8621L54.9999 21.2716Z" fill="#FF5600"/>
<path d="M37.8689 35.7543L54.9999 47.5216V21.2716L37.8689 10.8621V35.7543Z" fill="#FF8F00"/>
<path d="M37.8689 10.8621L54.9999 21.2716L72.1311 10.8621L54.9999 0L37.8689 10.8621Z" fill="#FFB515"/>
<path d="M36.7418 89.0519L54.9999 99.569L73.2582 89.0519L55 78.4161L36.7418 89.0519Z" fill="#FFB515"/>
<path d="M18.4836 78.5349L36.7418 89.0519L55 78.4161L36.7418 67.7804L18.4836 78.5349Z" fill="#D1D149"/>
<path d="M54.9999 57.0259L37.8689 46.1638L18.4836 57.2845L36.7418 67.7804L54.9999 57.0259Z" fill="#E381AA"/>
<path d="M54.9999 125.819V179.677C57.1038 178.772 61.3115 175.241 61.3115 168.362C61.3115 166.552 61.0411 162.569 59.9591 161.121C58.7569 159.612 57.705 155.763 59.9591 151.164C63.9619 142.997 74.6662 127.947 88.8115 124.332C91.1283 123.739 93.5375 123.454 96.0247 123.556C97.3771 128.082 96.3853 139.306 81.5984 147.996C79.0438 149.655 73.9344 154.966 73.9344 162.931V210L98.7295 194.159C99.1803 193.858 100.082 192.802 100.082 190.991V175.603C100.082 172.737 102.066 164.922 110 156.595V93.6853C110 75.5819 106.123 65.6638 91.5164 57.2845L72.1311 46.1638L54.9999 57.0259L36.7418 67.7804L55 78.4161L73.2582 89.0519L54.9999 99.569V125.819Z" fill="#FF5600"/>
<path d="M48.6885 168.362C48.6885 175.241 52.8961 178.772 54.9999 179.677V125.819V99.569L36.7418 89.0519V115.152L18.3709 104.419L0 93.6853V156.595C7.93443 164.922 9.91803 172.737 9.91803 175.603V190.991C9.91803 192.802 10.8197 193.858 11.2705 194.159L36.0656 210V162.931C36.0656 154.966 30.9562 149.655 28.4016 147.996C13.6147 139.306 12.6229 128.082 13.9753 123.556C16.4625 123.454 18.8717 123.739 21.1885 124.332C35.3338 127.947 46.0381 142.997 50.0409 151.164C52.295 155.763 51.2431 159.612 50.0409 161.121C48.9589 162.569 48.6885 166.552 48.6885 168.362Z" fill="#FF8F00"/>
</svg>
