<svg width="136" height="211" viewBox="0 0 136 211" fill="none" xmlns="http://www.w3.org/2000/svg">
<path d="M0.00855798 123.924L17.6483 134.421L17.6483 114.145L0.00855798 123.924Z" fill="#FFB515"/>
<path d="M84.7839 110.039V110.14V133.624L101.784 143.316V119.731L84.7839 110.039Z" fill="#FF8F00"/>
<path d="M136 111.987V76.7524L118.568 86.1277V109.713L101.784 119.731V143.316L85 153.334V176.919L68 186.914V210.5L102 190.51C136 170.52 136 179.724 136 111.987Z" fill="#FF5600"/>
<path d="M0 53.4544L17.6479 63.9666L34.4322 73.6363L51.2161 63.6189L68 53.6014L51.2158 43.9318L34.302 33.867L0 53.4544Z" fill="#D88E89"/>
<path d="M84.7839 133.624V110.14L68 100.571V124.056L84.7839 133.624Z" fill="#729967"/>
<path d="M136 76.7524L118.352 66.4183L101.568 76.4357L118.568 86.1277L136 76.7524Z" fill="#FFB515"/>
<path d="M101.568 100.021L84.7839 110.039L101.784 119.731L118.568 109.713L101.568 100.021Z" fill="#FFB515"/>
<path d="M101.568 100.021L118.568 109.713V86.1277L101.568 76.4357V80.4351V100.021Z" fill="#FF8F00"/>
<path d="M84.7839 66.9678L101.568 56.9504L84.7839 47.3816V66.9678Z" fill="#0095DA"/>
<path d="M118.568 19.9145L136 10.207L119 0.5L101.568 10.207L118.568 19.9145Z" fill="#0095DA"/>
<path d="M118.568 19.9145V43.5002L136 33.7926V10.207L118.568 19.9145Z" fill="#0067BC"/>
<path d="M101.568 33.7926L118.568 43.5002V19.9145L101.568 10.207V33.7926Z" fill="#00488C"/>
<path d="M51.2158 43.9318L68 53.6014L84.7839 43.4831L67.9996 33.8134L51.544 24.0213L34.302 33.867L51.2158 43.9318Z" fill="#0095DA"/>
<path d="M68 210.5V186.914L51.2161 177.245L34.4322 167.575L17.6483 157.905L17.6483 134.421L0.00855798 123.924C0.135541 178.678 2.14672 171.782 34 190.51L51.2161 200.632L68 210.5Z" fill="#FF8F00"/>
<path d="M68 143.642L85 153.334L101.784 143.316L84.7839 133.624L68 124.056L51.2161 134.073L68 143.642Z" fill="#FFB515"/>
<path d="M68 186.914L85 176.919L68 167.227L51.2161 157.659L34.4322 167.575L51.2161 177.245L68 186.914Z" fill="#FFB515"/>
<path d="M68 167.227L85 176.919V153.334L68 143.642L51.2161 134.073V157.659L68 167.227Z" fill="#FF8F00"/>
<path d="M51.2161 134.073L68 124.056V100.571L68 76.9852L68 53.6014L51.2161 63.6189L34.4322 73.6363V97.121L34.4322 120.606V144.09L34.4322 167.575L51.2161 157.659V134.073Z" fill="#E381AA"/>
<path d="M17.6483 157.905L34.4322 167.575L34.4322 144.09V120.606L34.4322 97.121V73.6363L17.6479 63.9666L0 53.4544V100.626L17.6483 110.936L17.6483 114.145L17.6483 134.421L17.6483 157.905Z" fill="#D45987"/>
<path d="M84.7839 90.4525L101.568 80.4351V76.4357L101.568 56.9504L84.7839 66.9678V47.3816V43.4831L68 53.6014L68 76.9852L68 100.571L84.7839 90.4525Z" fill="#0067BC"/>
<path d="M84.7839 110.14V110.039L101.568 100.021V80.4351L84.7839 90.4525L68 100.571L84.7839 110.14Z" fill="#D1D149"/>
</svg>
