<svg width="78" height="132" viewBox="0 0 78 132" fill="none" xmlns="http://www.w3.org/2000/svg">
<path d="M6.80418 67.2868L8.22005 66.4558L3.96327 64.096V68.9543L5.48666 68.0601V66.6295L6.80418 67.2868Z" fill="#FF8F00"/>
<path d="M31.3843 61.5626L16.9121 53.2023L17.9277 52.4422L13.8653 49.6554L13.1036 50.1621V51.8511L13.8653 51.4288L15.6426 52.4422L13.8653 53.9623L13.1036 53.5401V55.229L13.8653 55.7357L15.3887 54.469L19.1972 56.7008L31.3843 63.8427V61.5626Z" fill="#FF8F00"/>
<path d="M13.1036 51.8511V50.1621L9.29511 52.6956L13.1036 55.229V53.5401L11.5802 52.6956L13.1036 51.8511Z" fill="#FF8F00"/>
<path fill-rule="evenodd" clip-rule="evenodd" d="M35.9544 40.0284V36.2282L34.4311 36.9882V40.7884L35.9544 40.0284Z" fill="#D9D9D9"/>
<path fill-rule="evenodd" clip-rule="evenodd" d="M31.3843 107.165V126.925L38.9988 131.231V45.3499L35.9544 46.97V41.5484L37.4778 40.5351V34.4548L32.9077 36.7349V43.0685L34.4311 42.3085V47.7807L31.3843 49.4021V61.5626V63.8427L19.1972 56.7008V63.5894C32.146 71.1897 31.3843 68.6562 31.3843 82.0835L8.53344 69.1073V66.6295L8.22005 66.4558L6.80418 67.2868L7.01005 67.3895V70.4296L5.48666 69.6696V68.0601L3.96327 68.9543V70.1763L8.53344 72.7097V70.9363L13.1036 73.4698V78.5428L16.9121 80.7055V86.3903L15.3887 85.377V91.7106L19.9589 94.7507V88.4171L18.4355 87.4037L18.4463 81.5768C33.1615 90.4438 31.3843 87.1504 31.3843 107.165ZM35.9544 36.2282V40.0284L34.4311 40.7884V36.9882L35.9544 36.2282ZM18.4355 88.6704V91.7106L16.9121 90.6972V87.657L18.4355 88.6704Z" fill="#FF8F00"/>
<path fill-rule="evenodd" clip-rule="evenodd" d="M35.9544 40.0284V36.2282L34.4311 36.9882V40.7884L35.9544 40.0284Z" fill="#FF5600"/>
<path fill-rule="evenodd" clip-rule="evenodd" d="M39.0012 131.231L46.6157 126.925C46.6157 105.898 43.8253 110.458 64.8964 96.487V91.9568L70.2307 88.9238V90.6972L74.8009 87.4037V81.8301L70.2307 85.1236V87.1504L64.8964 90.1262L46.6157 100.324V98.2975C46.6157 88.4171 45.8565 90.1262 59.5537 81.5768L61.0879 80.7055L64.8964 78.5428V73.4698L69.4666 70.9363V72.7097L74.0367 70.1763V68.9543V64.096L69.7799 66.4558L69.4666 66.6295V69.1073L64.8964 71.7025L46.6157 82.0835V80.3101V68.1496L48.1415 68.9096V62.8293L44.3331 60.5492V66.6295L45.0948 67.1362V71.1897L39.0012 67.6429V131.231ZM70.99 67.3895V70.4296L72.5133 69.6696V68.0601V66.6295L71.1958 67.2868L70.99 67.3895ZM74.0392 86.6437V84.0089L71.7541 85.377V88.0117L74.0392 86.6437ZM45.0948 65.6161L46.6157 66.6295V63.8427L45.0948 62.8293V65.6161Z" fill="#FFB515"/>
<path d="M13.1036 96.487L31.3843 107.165C31.3843 87.1504 33.1615 90.4438 18.4463 81.5768L18.4355 87.4037L19.9589 88.4171V94.7507L15.3887 91.7106V85.377L16.9121 86.3903V80.7055L13.1036 78.5428V96.487Z" fill="#FF5600"/>
<path d="M18.4355 91.7106V88.6704L16.9121 87.657V90.6972L18.4355 91.7106Z" fill="#FF5600"/>
<path d="M8.53344 72.7097L3.96327 70.1763V68.9543L0.154795 71.1897L13.1036 78.5428V73.4698L8.53344 70.9363V72.7097Z" fill="#FF5600"/>
<path d="M8.53344 69.1073L31.3843 82.0835C31.3843 68.6562 32.146 71.1897 19.1972 63.5894V56.7008L15.3887 54.469L13.8653 55.7357L13.1036 55.229V60.0425V63.5894L8.22005 66.4558L8.53344 66.6295V69.1073Z" fill="#FF5600"/>
<path d="M7.01005 70.4296V67.3895L6.80418 67.2868L5.48666 68.0601V69.6696L7.01005 70.4296Z" fill="#FF5600"/>
<path d="M39 27.6136L27.3219 18.7475C11.5802 28.3745 13.1036 23.8143 13.1036 44.5886V50.1621L13.8653 49.6554L17.9277 52.4422L16.9121 53.2023L31.3843 61.5626V49.4021L34.4311 47.7807V42.3085L32.9077 43.0685V36.7349L37.4778 34.4548V40.5351L35.9544 41.5484V46.97L38.9988 45.3499V45.3486V27.6145L39 27.6136Z" fill="#FF5600"/>
<path d="M13.8653 53.9623L15.6426 52.4422L13.8653 51.4288L13.1036 51.8511V53.5401L13.8653 53.9623Z" fill="#FF5600"/>
<path d="M77.8452 71.1897L64.8964 78.5428L61.0879 80.7055L59.5537 81.5768C45.8565 90.1262 46.6157 88.4171 46.6157 98.2975L64.8964 87.9104V90.1262L70.2307 87.1504V85.1236L74.8009 81.8301V87.4037L70.2307 90.6972V88.9238L64.8964 91.9568V96.487C80.3842 87.1504 77.8452 90.6972 77.8452 71.1897Z" fill="#FF5600"/>
<path d="M74.0392 84.0089V86.6437L71.7541 88.0117V85.377L74.0392 84.0089Z" fill="#FF5600"/>
<path d="M46.6157 66.6295L45.0948 65.6161V62.8293L46.6157 63.8427V66.6295Z" fill="#FF5600"/>
<path d="M77.8452 71.1897V52.6956L64.8964 60.0425V70.1763V71.7025L69.4666 69.1073V66.6295L69.7799 66.4558L74.0367 64.096V68.9543V70.1763L69.4666 72.7097V70.9363L64.8964 73.4698V78.5428L77.8452 71.1897Z" fill="#729967"/>
<path d="M77.8452 52.6956L64.8964 44.5886L52.2039 52.6956L63.8832 59.4561L64.8964 60.0425L77.8452 52.6956Z" fill="#D1D149"/>
<path d="M30.6226 15.454L38.9988 21.7858V10.0197L39 10.019L30.6226 5.06688V15.454Z" fill="#729967"/>
<path d="M39 0.00072863L30.6226 5.06688L39 10.019L47.3774 5.06688L39 0.00072863Z" fill="#D1D149"/>
<path d="M39.0012 10.0197V21.7858L47.3774 15.454V5.06688L39 10.019L39.0012 10.0197Z" fill="#48775D"/>
<path d="M46.6157 100.324L64.8964 90.1262V87.9104L46.6157 98.2975V100.324Z" fill="#FFE34D"/>
<path fill-rule="evenodd" clip-rule="evenodd" d="M46.6157 82.0835V80.3101L63.8832 70.7379L64.8964 71.7025L46.6157 82.0835Z" fill="#FFE34D"/>
<path d="M64.8964 71.7025V70.1763V60.0425L63.8832 59.4561V70.7379L64.8964 71.7025Z" fill="#48775D"/>
<path d="M39.0012 27.6145V45.3486V67.6429L45.0948 71.1897V67.1362L44.3331 66.6295V60.5492L48.1415 62.8293V68.9096L46.6157 68.1496V80.3101L63.8832 70.7379V59.4561L52.2039 52.6956L64.8964 44.5886C64.8964 23.8143 66.4198 28.3745 50.6781 18.7475L39 27.6136L39.0012 27.6145Z" fill="#FF5600"/>
<path d="M13.1036 78.5428L0.154795 71.1897C0.154795 90.6972 -2.38421 87.1504 13.1036 96.487V78.5428Z" fill="#0095DA"/>
<path d="M0.154795 52.6956V71.1897L3.96327 68.9543V64.096L8.22005 66.4558L13.1036 63.5894V60.0425L0.154795 52.6956Z" fill="#D45987"/>
<path d="M5.48666 66.6295V68.0601L6.80418 67.2868L5.48666 66.6295Z" fill="#D45987"/>
<path d="M13.1036 44.5886L0.154795 52.6956L13.1036 60.0425V55.229L9.29511 52.6956L13.1036 50.1621V44.5886Z" fill="#E381AA"/>
<path d="M11.5802 52.6956L13.1036 53.5401V51.8511L11.5802 52.6956Z" fill="#E381AA"/>
<path d="M70.99 70.4296V67.3895L71.1958 67.2868L72.5133 66.6295V68.0601V69.6696L70.99 70.4296Z" fill="#729967"/>
</svg>
